%FSLAX25Y25*%
%MOIN*%
G70*
G01*
G75*
G04 Layer_Physical_Order=3*
G04 Layer_Color=16711680*
%ADD10R,0.06693X0.04331*%
%ADD11O,0.02362X0.09055*%
%ADD12R,0.04724X0.05512*%
%ADD13C,0.06299*%
%ADD14C,0.03150*%
%ADD15C,0.01181*%
%ADD16C,0.00787*%
%ADD17C,0.01969*%
%ADD18C,0.01000*%
%ADD19C,0.06000*%
%ADD20C,0.06299*%
%ADD21R,0.06299X0.06299*%
%ADD22C,0.05906*%
%ADD23R,0.05906X0.05906*%
G36*
X80292Y94086D02*
Y93469D01*
X80000Y93213D01*
X79281Y93118D01*
X78610Y92840D01*
X78035Y92399D01*
X77750Y92028D01*
X77250D01*
X76965Y92399D01*
X76390Y92840D01*
X75719Y93118D01*
X75000Y93213D01*
X74708Y93469D01*
Y95000D01*
X74540Y95845D01*
X74061Y96561D01*
X69708Y100915D01*
Y104017D01*
X70170Y104208D01*
X80292Y94086D01*
D02*
G37*
G36*
X90500Y116853D02*
X90719Y116882D01*
X91390Y117160D01*
X91966Y117601D01*
X92250Y117972D01*
X92583D01*
X92792Y117901D01*
Y97500D01*
X92960Y96655D01*
X93439Y95939D01*
X95292Y94086D01*
Y93469D01*
X95000Y93213D01*
X94281Y93118D01*
X93610Y92840D01*
X93034Y92399D01*
X92750Y92028D01*
X92417D01*
X92208Y92099D01*
Y95000D01*
X92040Y95845D01*
X91561Y96561D01*
X89507Y98615D01*
Y116473D01*
X89883Y116803D01*
X89507Y116852D01*
Y122914D01*
X90500D01*
Y116853D01*
D02*
G37*
G36*
X34130Y126630D02*
X37735Y123026D01*
Y89474D01*
X33026Y84765D01*
X14474D01*
X13370Y85869D01*
X13177Y86017D01*
Y87565D01*
X14312D01*
X15939Y85939D01*
X16655Y85460D01*
X17500Y85292D01*
X27500D01*
X28345Y85460D01*
X29061Y85939D01*
X34061Y90939D01*
X34540Y91655D01*
X34708Y92500D01*
Y120000D01*
X34540Y120845D01*
X34061Y121561D01*
X29261Y126361D01*
X29452Y126823D01*
X33983D01*
X34130Y126630D01*
D02*
G37*
G36*
X48035Y117601D02*
X48610Y117160D01*
X49281Y116882D01*
X50000Y116787D01*
X50292Y116531D01*
Y98414D01*
X48439Y96561D01*
X47960Y95845D01*
X47792Y95000D01*
Y92424D01*
X47386Y92133D01*
X47265Y92174D01*
Y117826D01*
X47739Y117987D01*
X48035Y117601D01*
D02*
G37*
G36*
X65493Y118394D02*
X65460Y118345D01*
X65292Y117500D01*
Y116825D01*
X65000Y116787D01*
X65292Y116531D01*
Y100983D01*
X64830Y100792D01*
X62208Y103414D01*
Y117901D01*
X62417Y117972D01*
X62750D01*
X63034Y117601D01*
X63610Y117160D01*
X64281Y116882D01*
X64500Y116853D01*
Y122914D01*
X65493D01*
Y118394D01*
D02*
G37*
G36*
X21294Y116967D02*
X21073Y116518D01*
X20000Y116660D01*
X18818Y116504D01*
X17717Y116048D01*
X17353Y115769D01*
X9708Y123415D01*
Y127900D01*
X10170Y128091D01*
X21294Y116967D01*
D02*
G37*
G36*
X85493Y114217D02*
Y98394D01*
X85460Y98345D01*
X85292Y97500D01*
X85460Y96655D01*
X85939Y95939D01*
X87792Y94086D01*
Y92099D01*
X87583Y92028D01*
X87250D01*
X86966Y92399D01*
X86390Y92840D01*
X85719Y93118D01*
X85000Y93213D01*
X84708Y93469D01*
Y95000D01*
X84540Y95845D01*
X84061Y96561D01*
X72208Y108414D01*
Y114017D01*
X72670Y114208D01*
X73439Y113439D01*
X74155Y112960D01*
X75000Y112792D01*
X82500D01*
X83345Y112960D01*
X84061Y113439D01*
X85031Y114409D01*
X85493Y114217D01*
D02*
G37*
G36*
X62792Y81843D02*
Y21537D01*
X62693Y21496D01*
X61737Y20763D01*
X61004Y19807D01*
X60543Y18694D01*
X60386Y17500D01*
X60543Y16306D01*
X60920Y15396D01*
X60504Y15118D01*
X59416Y16206D01*
X59457Y16306D01*
X59614Y17500D01*
X59457Y18694D01*
X58996Y19807D01*
X58263Y20763D01*
X57307Y21496D01*
X56194Y21957D01*
X55000Y22114D01*
X53806Y21957D01*
X52896Y21580D01*
X52618Y21996D01*
X61561Y30939D01*
X62040Y31655D01*
X62208Y32500D01*
Y81843D01*
X62500Y82053D01*
X62792Y81843D01*
D02*
G37*
G36*
X72792Y24085D02*
Y21537D01*
X72693Y21496D01*
X71737Y20763D01*
X71004Y19807D01*
X70543Y18694D01*
X70386Y17500D01*
X70543Y16306D01*
X71004Y15193D01*
X71032Y15156D01*
X70811Y14708D01*
X69189D01*
X68968Y15156D01*
X68996Y15193D01*
X69457Y16306D01*
X69614Y17500D01*
X69457Y18694D01*
X68996Y19807D01*
X68263Y20763D01*
X67307Y21496D01*
X67208Y21537D01*
Y29017D01*
X67670Y29208D01*
X72792Y24085D01*
D02*
G37*
G36*
X98230Y13752D02*
X98439Y13439D01*
X100939Y10939D01*
X101655Y10460D01*
X102500Y10292D01*
X110000D01*
X110845Y10460D01*
X111561Y10939D01*
X113706Y13084D01*
X113806Y13043D01*
X115000Y12886D01*
X116194Y13043D01*
X117307Y13504D01*
X117344Y13532D01*
X117792Y13311D01*
Y8415D01*
X116586Y7208D01*
X90983D01*
X90792Y7670D01*
X91561Y8439D01*
X92040Y9155D01*
X92208Y10000D01*
Y13311D01*
X92656Y13532D01*
X92693Y13504D01*
X93806Y13043D01*
X95000Y12886D01*
X96194Y13043D01*
X97307Y13504D01*
X97736Y13833D01*
X98230Y13752D01*
D02*
G37*
G36*
X76267Y65397D02*
X77500Y65235D01*
X78733Y65397D01*
X78908Y65470D01*
X79249Y65129D01*
Y64331D01*
X77520D01*
Y55669D01*
X92480D01*
D01*
X92480D01*
X92792Y55357D01*
Y21798D01*
X92381Y21513D01*
X92137Y21605D01*
X92040Y22095D01*
X91561Y22811D01*
X74708Y39665D01*
Y65593D01*
X75124Y65871D01*
X76267Y65397D01*
D02*
G37*
G36*
X48035Y81775D02*
X48610Y81333D01*
X49281Y81055D01*
X50000Y80961D01*
X50719Y81055D01*
X51390Y81333D01*
X51965Y81775D01*
X52250Y82145D01*
X52750D01*
X53035Y81775D01*
X53610Y81333D01*
X54281Y81055D01*
X55000Y80961D01*
X55719Y81055D01*
X56390Y81333D01*
X56966Y81775D01*
X57250Y82145D01*
X57583D01*
X57792Y82074D01*
Y74407D01*
X57376Y74129D01*
X56233Y74603D01*
X55000Y74765D01*
X47265D01*
Y81999D01*
X47739Y82160D01*
X48035Y81775D01*
D02*
G37*
G36*
X57792Y65593D02*
Y33415D01*
X48439Y24061D01*
X47960Y23345D01*
X47792Y22500D01*
Y21689D01*
X47344Y21468D01*
X47307Y21496D01*
X46194Y21957D01*
X45000Y22114D01*
X43806Y21957D01*
X42896Y21580D01*
X42618Y21996D01*
X43415Y22792D01*
X45000D01*
X45845Y22960D01*
X46561Y23439D01*
X56561Y33439D01*
X57040Y34155D01*
X57208Y35000D01*
Y60000D01*
X57040Y60845D01*
X56561Y61561D01*
X54061Y64061D01*
X53345Y64540D01*
X52500Y64708D01*
X43415D01*
X42895Y65228D01*
X43172Y65643D01*
X43767Y65397D01*
X45000Y65235D01*
X55000D01*
X56233Y65397D01*
X57376Y65871D01*
X57792Y65593D01*
D02*
G37*
G36*
X107792Y66309D02*
Y27500D01*
X107960Y26655D01*
X108439Y25939D01*
X110939Y23439D01*
X111655Y22960D01*
X112500Y22792D01*
X116586D01*
X117382Y21996D01*
X117104Y21580D01*
X116194Y21957D01*
X115000Y22114D01*
X113806Y21957D01*
X112693Y21496D01*
X111737Y20763D01*
X111004Y19807D01*
X110543Y18694D01*
X110386Y17500D01*
X110543Y16306D01*
X110584Y16206D01*
X109496Y15118D01*
X109080Y15396D01*
X109457Y16306D01*
X109614Y17500D01*
X109457Y18694D01*
X108996Y19807D01*
X108263Y20763D01*
X107307Y21496D01*
X107208Y21537D01*
Y66517D01*
X107377Y66587D01*
X107792Y66309D01*
D02*
G37*
G36*
X117792Y190476D02*
Y158414D01*
X98439Y139061D01*
X97960Y138345D01*
X97792Y137500D01*
Y133483D01*
X97623Y133413D01*
X97208Y133691D01*
Y190291D01*
X97632Y190555D01*
X97792Y190476D01*
Y190000D01*
X97960Y189155D01*
X98439Y188439D01*
X100939Y185939D01*
X101655Y185460D01*
X102500Y185292D01*
X112500D01*
X113345Y185460D01*
X114061Y185939D01*
X116561Y188439D01*
X117040Y189155D01*
X117208Y190000D01*
Y190291D01*
X117632Y190555D01*
X117792Y190476D01*
D02*
G37*
G36*
X42693Y190669D02*
X43806Y190208D01*
X45000Y190051D01*
X46194Y190208D01*
X47307Y190669D01*
X47344Y190697D01*
X47792Y190476D01*
Y190000D01*
X47960Y189155D01*
X48439Y188439D01*
X52792Y184086D01*
Y163483D01*
X52330Y163292D01*
X49061Y166561D01*
X48345Y167040D01*
X47500Y167208D01*
X15983D01*
X15792Y167670D01*
X16023Y167901D01*
X35108D01*
X35953Y168069D01*
X36669Y168547D01*
X41561Y173439D01*
X42040Y174155D01*
X42208Y175000D01*
Y190476D01*
X42656Y190697D01*
X42693Y190669D01*
D02*
G37*
G36*
X46679Y162386D02*
X46597Y162146D01*
X46267Y162103D01*
X45117Y161627D01*
X44131Y160870D01*
X43526Y160081D01*
X41354D01*
X40870Y160712D01*
X39883Y161469D01*
X38733Y161945D01*
X38000Y162042D01*
Y157342D01*
Y152643D01*
X38733Y152740D01*
X39883Y153216D01*
X40870Y153973D01*
X41595Y154919D01*
X43526D01*
X44131Y154130D01*
X45117Y153373D01*
X46267Y152897D01*
X47000Y152801D01*
Y157501D01*
X48000D01*
Y152801D01*
X48733Y152897D01*
X49876Y153371D01*
X50292Y153093D01*
Y143483D01*
X49830Y143292D01*
X49061Y144061D01*
X48345Y144540D01*
X47500Y144708D01*
X29921D01*
Y147315D01*
X24999D01*
Y147814D01*
X24500D01*
Y151555D01*
X20079D01*
Y150081D01*
X17473D01*
X17282Y150543D01*
X19474Y152735D01*
X30000D01*
X31233Y152897D01*
X32383Y153373D01*
X33369Y154130D01*
X33440Y154222D01*
X33940D01*
X34130Y153973D01*
X35117Y153216D01*
X36267Y152740D01*
X37000Y152643D01*
Y157342D01*
Y162042D01*
X36267Y161945D01*
X35117Y161469D01*
X34130Y160712D01*
X34060Y160621D01*
X33560D01*
X33369Y160870D01*
X32383Y161627D01*
X31233Y162103D01*
X30000Y162265D01*
X17500D01*
X16267Y162103D01*
X15673Y161857D01*
X15395Y162272D01*
X15914Y162792D01*
X46387D01*
X46679Y162386D01*
D02*
G37*
G36*
X117792Y199085D02*
Y198854D01*
X117344Y198633D01*
X117307Y198661D01*
X116194Y199122D01*
X115000Y199280D01*
X113806Y199122D01*
X112693Y198661D01*
X111737Y197928D01*
X111004Y196973D01*
X110543Y195860D01*
X110386Y194665D01*
X110543Y193471D01*
X111004Y192358D01*
X111737Y191403D01*
X112310Y190963D01*
X112342Y190464D01*
X111585Y189708D01*
X106215D01*
X106182Y190207D01*
X106194Y190208D01*
X107307Y190669D01*
X108263Y191403D01*
X108996Y192358D01*
X109457Y193471D01*
X109614Y194665D01*
X109457Y195860D01*
X108996Y196973D01*
X108263Y197928D01*
X107307Y198661D01*
X107208Y198703D01*
Y199085D01*
X108414Y200292D01*
X116586D01*
X117792Y199085D01*
D02*
G37*
G36*
X97792D02*
Y198854D01*
X97344Y198633D01*
X97307Y198661D01*
X96194Y199122D01*
X95000Y199280D01*
X93806Y199122D01*
X92693Y198661D01*
X91737Y197928D01*
X91004Y196973D01*
X90543Y195860D01*
X90386Y194665D01*
X90543Y193471D01*
X91004Y192358D01*
X91737Y191403D01*
X92693Y190669D01*
X92792Y190628D01*
Y144407D01*
X92377Y144129D01*
X91233Y144603D01*
X90500Y144699D01*
Y139999D01*
X89500D01*
Y144699D01*
X88767Y144603D01*
X87624Y144129D01*
X87208Y144407D01*
Y190628D01*
X87307Y190669D01*
X88263Y191403D01*
X88996Y192358D01*
X89457Y193471D01*
X89614Y194665D01*
X89457Y195860D01*
X88996Y196973D01*
X88263Y197928D01*
X87307Y198661D01*
X86194Y199122D01*
X85000Y199280D01*
X83806Y199122D01*
X82693Y198661D01*
X82656Y198633D01*
X82208Y198854D01*
Y199085D01*
X83415Y200292D01*
X96586D01*
X97792Y199085D01*
D02*
G37*
G36*
X61289Y197344D02*
X61004Y196973D01*
X60543Y195860D01*
X60386Y194665D01*
X60543Y193471D01*
X61004Y192358D01*
X61737Y191403D01*
X62693Y190669D01*
X62792Y190628D01*
Y168414D01*
X57670Y163292D01*
X57208Y163483D01*
Y185000D01*
X57040Y185845D01*
X56561Y186561D01*
X53189Y189933D01*
X53467Y190348D01*
X53806Y190208D01*
X55000Y190051D01*
X56194Y190208D01*
X57307Y190669D01*
X58263Y191403D01*
X58996Y192358D01*
X59457Y193471D01*
X59614Y194665D01*
X59457Y195860D01*
X58996Y196973D01*
X58388Y197765D01*
X58415Y197792D01*
X61068D01*
X61289Y197344D01*
D02*
G37*
G36*
X67792Y190476D02*
Y165000D01*
X67960Y164155D01*
X68439Y163439D01*
X72792Y159086D01*
Y132104D01*
X72351Y131868D01*
X72095Y132040D01*
X71250Y132208D01*
X68750D01*
X68535Y132165D01*
X68177Y132500D01*
Y136483D01*
X68370Y136630D01*
X69127Y137617D01*
X69603Y138767D01*
X69699Y139500D01*
X60301D01*
X60397Y138767D01*
X60873Y137617D01*
X61630Y136630D01*
X61823Y136483D01*
Y132500D01*
X61932Y131678D01*
X62249Y130912D01*
X62754Y130254D01*
X62792Y130224D01*
Y127926D01*
X62583Y127855D01*
X62250D01*
X61966Y128225D01*
X61390Y128667D01*
X60719Y128945D01*
X60000Y129040D01*
X59696Y129365D01*
X59708Y129426D01*
Y159086D01*
X60228Y159605D01*
X60643Y159328D01*
X60397Y158733D01*
X60301Y158000D01*
X64500D01*
Y162199D01*
X63767Y162103D01*
X63172Y161857D01*
X62895Y162272D01*
X66561Y165939D01*
X67040Y166655D01*
X67208Y167500D01*
Y190291D01*
X67632Y190555D01*
X67792Y190476D01*
D02*
G37*
G36*
X72693Y190669D02*
X73806Y190208D01*
X75000Y190051D01*
X76194Y190208D01*
X77307Y190669D01*
X77344Y190697D01*
X77792Y190476D01*
Y128156D01*
X77500Y127947D01*
X77208Y128156D01*
Y160000D01*
X77040Y160845D01*
X76561Y161561D01*
X72208Y165914D01*
Y190476D01*
X72656Y190697D01*
X72693Y190669D01*
D02*
G37*
G36*
X82792Y190291D02*
Y132500D01*
X82960Y131655D01*
X83439Y130939D01*
X84899Y129479D01*
X84738Y129005D01*
X84281Y128945D01*
X83610Y128667D01*
X83034Y128225D01*
X82750Y127855D01*
X82417D01*
X82208Y127926D01*
Y190476D01*
X82368Y190555D01*
X82792Y190291D01*
D02*
G37*
G36*
X47792Y139085D02*
Y127910D01*
X47593Y127650D01*
X47315Y126979D01*
X46764Y127052D01*
X46627Y127383D01*
X45869Y128369D01*
X41768Y132471D01*
X41959Y132933D01*
X42224D01*
Y140292D01*
X46586D01*
X47792Y139085D01*
D02*
G37*
G36*
X130000Y129862D02*
X130000D01*
X129862D01*
X129646Y129862D01*
X129646Y129862D01*
Y129862D01*
X120415D01*
Y75548D01*
X129646D01*
X130000Y75194D01*
Y0D01*
X0D01*
Y37425D01*
X52792D01*
Y35914D01*
X44085Y27208D01*
X42500D01*
X41655Y27040D01*
X40939Y26561D01*
X38147Y23769D01*
X37668Y23053D01*
X37500Y22208D01*
Y7792D01*
X37668Y6947D01*
X38147Y6231D01*
X40939Y3439D01*
X41655Y2960D01*
X42500Y2792D01*
X117500D01*
X118345Y2960D01*
X119061Y3439D01*
X121561Y5939D01*
X122040Y6655D01*
X122208Y7500D01*
Y22500D01*
X122040Y23345D01*
X121561Y24061D01*
X119061Y26561D01*
X118345Y27040D01*
X117500Y27208D01*
X113415D01*
X112208Y28414D01*
Y67500D01*
X112040Y68345D01*
X111561Y69061D01*
X107208Y73414D01*
Y82090D01*
X107407Y82350D01*
X107685Y83021D01*
X107780Y83740D01*
Y90433D01*
X107685Y91153D01*
X107407Y91823D01*
X106965Y92399D01*
X106390Y92840D01*
X105719Y93118D01*
X105000Y93213D01*
X104708Y93469D01*
Y116531D01*
X105000Y116787D01*
X105719Y116882D01*
X106390Y117160D01*
X106965Y117601D01*
X107407Y118177D01*
X107685Y118848D01*
X107780Y119567D01*
Y126260D01*
X107685Y126979D01*
X107407Y127650D01*
X107208Y127910D01*
Y131586D01*
X126561Y150939D01*
X127040Y151655D01*
X127208Y152500D01*
Y202500D01*
X127040Y203345D01*
X126561Y204061D01*
X121561Y209061D01*
X120845Y209540D01*
X120000Y209708D01*
X45000D01*
X44155Y209540D01*
X43439Y209061D01*
X38439Y204061D01*
X37960Y203345D01*
X37792Y202500D01*
Y175915D01*
X34194Y172316D01*
X15108D01*
X14263Y172148D01*
X13547Y171669D01*
X3439Y161561D01*
X2960Y160845D01*
X2792Y160000D01*
Y117093D01*
X2960Y116248D01*
X3439Y115532D01*
X5620Y113350D01*
X5589Y113275D01*
X5433Y112093D01*
X5589Y110911D01*
X6045Y109810D01*
X6771Y108864D01*
X6795Y108845D01*
X6779Y108346D01*
X6557Y108197D01*
X3699Y105339D01*
X3220Y104623D01*
X3052Y103778D01*
Y77500D01*
X3220Y76655D01*
X3699Y75939D01*
X8699Y70939D01*
X9415Y70460D01*
X10260Y70292D01*
X31585D01*
X40939Y60939D01*
X41655Y60460D01*
X42500Y60292D01*
X51586D01*
X52792Y59086D01*
Y58573D01*
X11937D01*
Y48573D01*
X0D01*
Y212500D01*
X130000D01*
Y129862D01*
D02*
G37*
%LPC*%
G36*
X65500Y162199D02*
Y158000D01*
X69699D01*
X69603Y158733D01*
X69127Y159883D01*
X68370Y160870D01*
X67383Y161627D01*
X66233Y162103D01*
X65500Y162199D01*
D02*
G37*
G36*
X69765Y157499D02*
X69700Y157000D01*
X60300D01*
X60235Y157499D01*
Y140001D01*
X60300Y140500D01*
X69700D01*
X69765Y140001D01*
Y157499D01*
D02*
G37*
G36*
X29921Y151555D02*
X25500D01*
Y148315D01*
X29921D01*
Y151555D01*
D02*
G37*
%LPD*%
D10*
X25000Y137185D02*
D03*
Y147815D02*
D03*
D11*
X105000Y87087D02*
D03*
X100000D02*
D03*
X95000D02*
D03*
X90000D02*
D03*
X85000D02*
D03*
X80000D02*
D03*
X75000D02*
D03*
X70000D02*
D03*
X65000D02*
D03*
X60000D02*
D03*
X55000D02*
D03*
X50000D02*
D03*
X105000Y122913D02*
D03*
X100000D02*
D03*
X95000D02*
D03*
X90000D02*
D03*
X85000D02*
D03*
X80000D02*
D03*
X75000D02*
D03*
X70000D02*
D03*
X65000D02*
D03*
X60000D02*
D03*
X55000D02*
D03*
X50000D02*
D03*
D12*
X88543Y60000D02*
D03*
X81457D02*
D03*
D13*
X12500Y80000D02*
X35000D01*
X10000Y82500D02*
X12500Y80000D01*
X27500Y95000D02*
Y117500D01*
X25000Y92500D02*
X27500Y95000D01*
X12500Y132500D02*
X27500Y117500D01*
X12500Y132500D02*
Y152500D01*
X45000Y70000D02*
X55000D01*
X42500Y72500D02*
X45000Y70000D01*
X42500Y72500D02*
Y87500D01*
X35000Y80000D02*
X42500Y87500D01*
X12500Y152500D02*
X17500Y157500D01*
X42500Y87500D02*
Y125000D01*
X37500Y130000D02*
X42500Y125000D01*
X12500Y147500D02*
Y152500D01*
X17500Y157500D02*
X30000D01*
X65000Y140000D02*
Y157500D01*
D14*
X10000Y82500D02*
Y92093D01*
X20000Y92500D02*
X25000D01*
Y132500D02*
Y137185D01*
Y132500D02*
X27500Y130000D01*
X37500D01*
Y137657D01*
X90000Y132500D02*
Y140000D01*
X65000Y132500D02*
Y140000D01*
X77500Y70000D02*
X78000Y70500D01*
X76250Y73750D02*
Y80250D01*
Y73750D02*
X77500Y72500D01*
Y70000D02*
Y72500D01*
D15*
X42500Y5000D02*
X117500D01*
X39708Y7792D02*
X42500Y5000D01*
X39708Y7792D02*
Y22208D01*
X117500Y5000D02*
X120000Y7500D01*
Y22500D01*
X117500Y25000D02*
X120000Y22500D01*
X112500Y25000D02*
X117500D01*
X110000Y27500D02*
X112500Y25000D01*
X110000Y27500D02*
Y67500D01*
X105000Y72500D02*
X110000Y67500D01*
X105000Y72500D02*
Y87087D01*
X110000Y12500D02*
X115000Y17500D01*
X102500Y12500D02*
X110000D01*
X72500Y38750D02*
Y80000D01*
Y38750D02*
X90000Y21250D01*
X70000Y35000D02*
Y87087D01*
X67500Y32500D02*
Y80000D01*
X65000Y17500D02*
Y87559D01*
X67500Y32500D02*
X75000Y25000D01*
X55000Y95000D02*
X57500Y97500D01*
Y160000D02*
X65000Y167500D01*
X57500Y129426D02*
Y160000D01*
X85000Y132500D02*
X87500Y130000D01*
Y97500D02*
X90000Y95000D01*
X10260Y72500D02*
X32500D01*
X5260Y77500D02*
X10260Y72500D01*
X32500D02*
X42500Y62500D01*
X27500Y87500D02*
X32500Y92500D01*
X19094Y133405D02*
Y141595D01*
X32500Y92500D02*
Y120000D01*
X17500Y87500D02*
X27500D01*
X19094Y133405D02*
X32500Y120000D01*
X40000Y175000D02*
Y202500D01*
X35108Y170108D02*
X40000Y175000D01*
X15108Y170108D02*
X35108D01*
X5000Y160000D02*
X15108Y170108D01*
X5000Y117093D02*
Y160000D01*
X15000Y165000D02*
X47500D01*
X7500Y157500D02*
X15000Y165000D01*
X7500Y122500D02*
Y157500D01*
X47500Y165000D02*
X52500Y160000D01*
X5260Y77500D02*
Y103778D01*
X42500Y62500D02*
X52500D01*
X55000Y60000D01*
Y35000D02*
Y60000D01*
X45000Y25000D02*
X55000Y35000D01*
X47500Y7500D02*
X87500D01*
X45000Y10000D02*
X47500Y7500D01*
X45000Y10000D02*
Y17500D01*
X87500Y7500D02*
X90000Y10000D01*
Y21250D01*
X39708Y22208D02*
X42500Y25000D01*
X45000D01*
X5000Y117093D02*
X10000Y112093D01*
X7500Y122500D02*
X17907Y112093D01*
X19094Y141595D02*
X20000Y142500D01*
X47500D01*
X50000Y140000D01*
Y122913D02*
Y140000D01*
X17907Y112093D02*
X20000D01*
X52500Y130000D02*
Y160000D01*
X15000Y90000D02*
X17500Y87500D01*
X15000Y90000D02*
Y97093D01*
X5260Y103778D02*
X8118Y106636D01*
X15457D01*
X20000Y102093D01*
X10000D02*
X15000Y97093D01*
X55000Y122913D02*
Y185000D01*
X52500Y97500D02*
Y117500D01*
X75000Y123386D02*
Y160000D01*
X70000Y165000D02*
X75000Y160000D01*
X70000Y165000D02*
Y197500D01*
X65000Y167500D02*
Y194665D01*
X55000Y121811D02*
Y122913D01*
X80000Y87087D02*
Y87559D01*
X67500Y200000D02*
X70000Y197500D01*
X85000Y132500D02*
Y194665D01*
X105000Y122913D02*
Y132500D01*
X125000Y152500D01*
X100000Y123386D02*
Y137500D01*
X120000Y157500D01*
X102500Y135000D02*
X122500Y155000D01*
X102500Y127379D02*
Y135000D01*
Y92500D02*
Y117500D01*
X80000Y122913D02*
Y200000D01*
X82500Y202500D01*
X97500D01*
X100000Y200000D01*
X95000Y132500D02*
X97500Y130000D01*
X95000Y132500D02*
Y194665D01*
X100000Y190000D02*
Y200000D01*
Y190000D02*
X102500Y187500D01*
X112500D01*
X115000Y190000D01*
Y194665D01*
X50000Y87087D02*
Y95000D01*
X52500Y97500D01*
X55000Y17500D02*
X60000Y12500D01*
X70000Y87087D02*
Y87559D01*
X75000Y17500D02*
Y25000D01*
X60000Y32500D02*
Y87559D01*
X81457Y60000D02*
Y66043D01*
X97500Y81250D02*
X98750Y80000D01*
X101250D02*
X102500Y81250D01*
X98750Y80000D02*
X101250D01*
X60000Y102500D02*
Y122913D01*
Y102500D02*
X67500Y95000D01*
Y92500D02*
Y95000D01*
X85000Y82500D02*
Y87559D01*
Y82500D02*
X100000Y67500D01*
X105000Y194665D02*
Y200000D01*
X107500Y202500D01*
X117500D01*
X120000Y200000D01*
Y157500D02*
Y200000D01*
X122500Y155000D02*
Y201250D01*
X125000Y152500D02*
Y202500D01*
X118750Y205000D02*
X122500Y201250D01*
X120000Y207500D02*
X125000Y202500D01*
X45000Y194665D02*
Y202500D01*
X47500Y205000D01*
X118750D01*
X67500Y100000D02*
Y117500D01*
Y100000D02*
X72500Y95000D01*
Y92500D02*
Y95000D01*
X70000Y107500D02*
Y122913D01*
Y107500D02*
X82500Y95000D01*
Y92500D02*
Y95000D01*
X72500Y117500D02*
X75000Y115000D01*
X85000Y117500D02*
Y122913D01*
X75000Y115000D02*
X82500D01*
X85000Y117500D01*
X55000Y87559D02*
Y95000D01*
X95000Y97500D02*
Y122913D01*
Y97500D02*
X97500Y95000D01*
Y92500D02*
Y95000D01*
Y100000D02*
X100000Y97500D01*
Y87559D02*
Y97500D01*
X90000Y87559D02*
Y95000D01*
X77500Y12500D02*
X79378Y14378D01*
Y25622D01*
X100000Y15000D02*
X102500Y12500D01*
X100000Y15000D02*
Y67500D01*
X95000Y77500D02*
Y87559D01*
Y77500D02*
X105000Y67500D01*
Y17500D02*
Y67500D01*
X82500Y80000D02*
X95000Y67500D01*
Y17500D02*
Y67500D01*
X80000Y77500D02*
Y87087D01*
Y77500D02*
X88543Y68957D01*
Y60000D02*
Y68957D01*
X55000Y194665D02*
Y197500D01*
X57500Y200000D01*
X67500D01*
X75000Y194665D02*
Y200000D01*
X72500Y202500D02*
X75000Y200000D01*
X52500Y202500D02*
X72500D01*
X50000Y200000D02*
X52500Y202500D01*
X50000Y190000D02*
Y200000D01*
Y190000D02*
X55000Y185000D01*
X67500Y128750D02*
X68750Y130000D01*
X71250D01*
X72500Y128750D01*
X65000Y122913D02*
Y132500D01*
X90000Y122913D02*
Y132500D01*
X77500Y70000D02*
X81457Y66043D01*
X70000Y35000D02*
X79378Y25622D01*
X60000Y12500D02*
X77500D01*
X50000Y22500D02*
X60000Y32500D01*
X85000Y12500D02*
Y17500D01*
X82500Y10000D02*
X85000Y12500D01*
X52500Y10000D02*
X82500D01*
X50000Y12500D02*
X52500Y10000D01*
X50000Y12500D02*
Y22500D01*
X40000Y202500D02*
X45000Y207500D01*
X120000D01*
X75000Y81500D02*
Y87087D01*
Y81500D02*
X76250Y80250D01*
D16*
X72500Y80000D02*
Y92500D01*
X67500Y80000D02*
Y92500D01*
X57500Y97500D02*
Y129426D01*
X87500Y126277D02*
Y130000D01*
Y97500D02*
Y126277D01*
X52500Y117500D02*
Y130000D01*
X102500Y117500D02*
Y127379D01*
X97500Y81250D02*
Y92500D01*
X102500Y81250D02*
Y92500D01*
X72500Y117500D02*
Y128750D01*
X97500Y100000D02*
Y130000D01*
X82500Y80000D02*
Y92500D01*
X67500Y117500D02*
Y128750D01*
X122777Y127500D02*
X127500D01*
Y125139D01*
X126713Y124351D01*
X123564D01*
X122777Y125139D01*
Y127500D01*
X127500Y122777D02*
X126713D01*
Y121990D01*
X127500D01*
Y122777D01*
X123564Y110970D02*
X122777Y111757D01*
Y113331D01*
X123564Y114119D01*
X126713D01*
X127500Y113331D01*
Y111757D01*
X126713Y110970D01*
X125139D01*
Y112544D01*
X127500Y109396D02*
Y107034D01*
X126713Y106247D01*
X125926Y107034D01*
Y108608D01*
X125139Y109396D01*
X124351Y108608D01*
Y106247D01*
Y101524D02*
Y103886D01*
X125139Y104673D01*
X126713D01*
X127500Y103886D01*
Y101524D01*
X122777Y99950D02*
X127500D01*
X125139D01*
X124351Y99163D01*
Y97588D01*
X125139Y96801D01*
X127500D01*
X124351Y95227D02*
X126713D01*
X127500Y94440D01*
X126713Y93653D01*
X127500Y92866D01*
X126713Y92078D01*
X124351D01*
X127500Y88143D02*
Y89717D01*
X126713Y90504D01*
X125139D01*
X124351Y89717D01*
Y88143D01*
X125139Y87356D01*
X125926D01*
Y90504D01*
X127500Y85781D02*
X124351D01*
Y83420D01*
X125139Y82633D01*
X127500D01*
X122777Y77910D02*
X127500D01*
Y80271D01*
X126713Y81058D01*
X125139D01*
X124351Y80271D01*
Y77910D01*
D17*
X12500Y147500D02*
X25000D01*
X37028Y137185D02*
X37500Y137657D01*
X37657Y157500D02*
X47500D01*
X37500Y157343D02*
X37657Y157500D01*
X37343D02*
X37500Y157343D01*
X30000Y157500D02*
X37343D01*
D18*
X52500Y45998D02*
Y40000D01*
X48501D01*
X42503Y45998D02*
X46502D01*
Y40000D01*
X42503D01*
X46502Y42999D02*
X44503D01*
X40504Y45998D02*
Y40000D01*
X37505D01*
X36505Y41000D01*
Y44998D01*
X37505Y45998D01*
X40504D01*
X34506Y40000D02*
Y45998D01*
X32506Y43999D01*
X30507Y45998D01*
Y40000D01*
X27508Y43999D02*
X25509D01*
X24509Y42999D01*
Y40000D01*
X27508D01*
X28508Y41000D01*
X27508Y41999D01*
X24509D01*
X21510Y44998D02*
Y43999D01*
X22510D01*
X20510D01*
X21510D01*
Y41000D01*
X20510Y40000D01*
X17511Y43999D02*
Y40000D01*
Y41999D01*
X16512Y42999D01*
X15512Y43999D01*
X14512D01*
X11513Y40000D02*
X9514D01*
X10514D01*
Y43999D01*
X11513D01*
X6515D02*
X2516Y40000D01*
X4515Y41999D01*
X2516Y43999D01*
X6515Y40000D01*
X52500Y50000D02*
Y55998D01*
X50501Y53999D01*
X48501Y55998D01*
Y50000D01*
X46502D02*
Y53999D01*
X44503Y55998D01*
X42503Y53999D01*
Y50000D01*
Y52999D01*
X46502D01*
X40504Y55998D02*
X36505Y50000D01*
Y55998D02*
X40504Y50000D01*
X34506Y55998D02*
X30507D01*
Y54998D01*
X34506Y51000D01*
Y50000D01*
X24509D02*
X28508D01*
X24509Y53999D01*
Y54998D01*
X25509Y55998D01*
X27508D01*
X28508Y54998D01*
X18511Y50000D02*
X22510D01*
X18511Y53999D01*
Y54998D01*
X19511Y55998D01*
X21510D01*
X22510Y54998D01*
X16512Y50000D02*
X14512D01*
X15512D01*
Y55998D01*
X16512Y54998D01*
X120000Y-3564D02*
Y-7500D01*
X121968D01*
X122624Y-6844D01*
Y-6188D01*
X121968Y-5532D01*
X120000D01*
X121968D01*
X122624Y-4876D01*
Y-4220D01*
X121968Y-3564D01*
X120000D01*
X125904D02*
X124592D01*
X123936Y-4220D01*
Y-6844D01*
X124592Y-7500D01*
X125904D01*
X126560Y-6844D01*
Y-4220D01*
X125904Y-3564D01*
X127872D02*
X130495D01*
X129183D01*
Y-7500D01*
D19*
X115000Y17500D02*
D03*
X75000D02*
D03*
X85000D02*
D03*
X95000D02*
D03*
X105000D02*
D03*
X65000D02*
D03*
X55000D02*
D03*
X45000D02*
D03*
Y194665D02*
D03*
X55000D02*
D03*
X65000D02*
D03*
X115000D02*
D03*
X105000D02*
D03*
X95000D02*
D03*
X85000D02*
D03*
X75000D02*
D03*
D20*
X37500Y157343D02*
D03*
X47500Y157500D02*
D03*
X65000D02*
D03*
X55000Y70000D02*
D03*
X90000Y140000D02*
D03*
X65000D02*
D03*
X77500Y70000D02*
D03*
D21*
X37500Y137657D02*
D03*
D22*
X20000Y112093D02*
D03*
X10000D02*
D03*
X20000Y102093D02*
D03*
X10000D02*
D03*
X20000Y92093D02*
D03*
D23*
X10000D02*
D03*
M02*
